<?xml version="1.0" encoding="UTF-8" standalone="no"?>
<svg
   xmlns:dc="http://purl.org/dc/elements/1.1/"
   xmlns:cc="http://creativecommons.org/ns#"
   xmlns:rdf="http://www.w3.org/1999/02/22-rdf-syntax-ns#"
   xmlns:svg="http://www.w3.org/2000/svg"
   xmlns="http://www.w3.org/2000/svg"
   xmlns:sodipodi="http://sodipodi.sourceforge.net/DTD/sodipodi-0.dtd"
   xmlns:inkscape="http://www.inkscape.org/namespaces/inkscape"
   version="1.1"
   id="svg2"
   xml:space="preserve"
   width="883.65332"
   height="874.97333"
   viewBox="0 0 883.65332 874.97333"
   sodipodi:docname="406632217-vector.eps"><metadata
     id="metadata8"><rdf:RDF><cc:Work
         rdf:about=""><dc:format>image/svg+xml</dc:format><dc:type
           rdf:resource="http://purl.org/dc/dcmitype/StillImage" /></cc:Work></rdf:RDF></metadata><defs
     id="defs6" /><sodipodi:namedview
     pagecolor="#ffffff"
     bordercolor="#666666"
     borderopacity="1"
     objecttolerance="10"
     gridtolerance="10"
     guidetolerance="10"
     inkscape:pageopacity="0"
     inkscape:pageshadow="2"
     inkscape:window-width="640"
     inkscape:window-height="480"
     id="namedview4" /><g
     id="g10"
     inkscape:groupmode="layer"
     inkscape:label="ink_ext_XXXXXX"
     transform="matrix(1.3333333,0,0,-1.3333333,0,874.97333)"><g
       id="g12"
       transform="scale(0.1)"><path
         d="m 3374.92,1706.48 c 627.79,0 1139.82,428.02 1139.82,952.81 0,524.79 -512.03,952.81 -1139.82,952.81 -627.78,0 -1139.8,-428.02 -1139.8,-952.81 0,-524.79 512.02,-952.81 1139.8,-952.81"
         style="fill:#100f0d;fill-opacity:1;fill-rule:evenodd;stroke:none"
         id="path14" /><path
         d="m 3277.56,6562.25 c 721.86,-664.53 -657.08,-1956.49 0,-2874.01 -1286.4,1160.4 434.97,1996.96 0,2874.01"
         style="fill:#100f0d;fill-opacity:1;fill-rule:evenodd;stroke:none"
         id="path16" /><path
         d="M 3575.12,6412 C 4296.98,5763.67 3093.87,4453.83 3750.96,3558.67 2511.89,4211.17 4021.01,5445.65 3575.12,6412"
         style="fill:#100f0d;fill-opacity:1;fill-rule:evenodd;stroke:none"
         id="path18" /><path
         d="M 4475.4,3571.88 2602.67,1699.15 c -80.78,42.8 -183.77,30.32 -251.57,-37.48 L 1142.15,452.719 c -83.11,-83.11 -83.11,-219.117 0,-302.231 l 88.16,-88.156 c 83.11,-83.1133 219.12,-83.1133 302.23,0 L 2741.49,1271.29 c 67.81,67.79 80.3,170.79 37.48,251.56 L 4651.7,3395.58 c 252.84,-125.95 661.52,-27.31 854.01,173.96 l 1101.91,1152.29 c 57.57,60.2 -22.68,156.44 -86.27,102.61 L 5291.63,3783.63 c -96.98,-82.08 -312.7,-14.72 -377.8,50.37 -65.1,65.1 -132.45,280.82 -50.37,377.81 l 1040.8,1229.71 c 53.84,63.6 -42.41,143.84 -102.61,86.28 L 4649.37,4425.89 C 4448.1,4233.4 4349.46,3824.72 4475.4,3571.88"
         style="fill:#100f0d;fill-opacity:1;fill-rule:evenodd;stroke:none"
         id="path20" /><path
         d="M 1197.64,5530.64 1078.01,5411 2325.24,3938.1 2444.88,4057.74 Z M 716.27,5024.09 2057.45,3682.91 2183.38,3808.84 842.203,5150.02 716.27,5024.09 Z M 335.664,4668.66 1808.56,3421.42 1928.2,3541.06 455.305,4788.3 335.664,4668.66 Z M 2477.49,3565.11 4343.43,1699.17 c 80.77,42.8 183.76,30.32 251.56,-37.48 L 5803.94,452.742 c 83.11,-83.113 83.11,-219.121 0,-302.23 l -88.16,-88.1604 c -83.11,-83.1133 -219.12,-83.1133 -302.24,0 L 4204.6,1271.3 c -67.8,67.8 -80.29,170.8 -37.48,251.57 L 2301.18,3388.8 2024.85,3159.17 c -93.7,-77.87 -262.37,-5.09 -358.91,69.26 L 22.5234,4494.05 c -56.8789,43.81 5.9024,157.02 56.668,207.78 l 542.6286,542.64 542.63,542.63 c 50.77,50.77 163.98,113.54 207.79,56.67 L 2637.86,4200.35 c 74.35,-96.54 147.13,-265.21 69.26,-358.91 l -229.63,-276.33 v 0"
         style="fill:#100f0d;fill-opacity:1;fill-rule:evenodd;stroke:none"
         id="path22" /><path
         d="m 3374.92,1955.82 c 534.6,0 970.63,352.01 970.63,783.61 0,431.6 -436.03,783.62 -970.63,783.62 -534.59,0 -970.61,-352.02 -970.61,-783.62 0,-431.6 436.02,-783.61 970.61,-783.61"
         style="fill:#ffffff;fill-opacity:1;fill-rule:evenodd;stroke:none"
         id="path24" /><path
         d="m 2528.97,2205.15 h 71.24 v 1068.57 h -71.24 V 2205.15"
         style="fill:#100f0d;fill-opacity:1;fill-rule:evenodd;stroke:none"
         id="path26" /><path
         d="m 2760.5,2062.67 h 71.23 V 3416.2 H 2760.5 V 2062.67"
         style="fill:#100f0d;fill-opacity:1;fill-rule:evenodd;stroke:none"
         id="path28" /><path
         d="m 2992.02,1946.91 h 71.24 v 1585.05 h -71.24 V 1946.91"
         style="fill:#100f0d;fill-opacity:1;fill-rule:evenodd;stroke:none"
         id="path30" /><path
         d="m 3223.54,1929.1 h 71.24 v 1620.66 h -71.24 V 1929.1"
         style="fill:#100f0d;fill-opacity:1;fill-rule:evenodd;stroke:none"
         id="path32" /><path
         d="m 3455.07,1938.01 h 71.24 v 1602.85 h -71.24 V 1938.01"
         style="fill:#100f0d;fill-opacity:1;fill-rule:evenodd;stroke:none"
         id="path34" /><path
         d="m 3686.59,1946.91 h 71.24 v 1585.05 h -71.24 V 1946.91"
         style="fill:#100f0d;fill-opacity:1;fill-rule:evenodd;stroke:none"
         id="path36" /><path
         d="m 3918.12,2035.96 h 71.24 v 1406.95 h -71.24 V 2035.96"
         style="fill:#100f0d;fill-opacity:1;fill-rule:evenodd;stroke:none"
         id="path38" /><path
         d="m 4149.64,2214.05 h 71.24 v 1050.76 h -71.24 V 2214.05"
         style="fill:#100f0d;fill-opacity:1;fill-rule:evenodd;stroke:none"
         id="path40" /><path
         d="m 1431,3041.66 122.58,-379.78 399.06,0.77 -323.3,-233.94 124.06,-379.27 -322.4,235.17 -322.39,-235.17 124.05,379.27 -323.301,233.94 399.061,-0.77 122.58,379.78"
         style="fill:#100f0d;fill-opacity:1;fill-rule:evenodd;stroke:none"
         id="path42" /><path
         d="m 3426.77,1079.07 122.58,-379.769 399.06,0.769 -323.3,-233.949 124.05,-379.2694 -322.39,235.1604 -322.4,-235.1604 124.05,379.2694 -323.3,233.949 399.06,-0.769 122.59,379.769"
         style="fill:#100f0d;fill-opacity:1;fill-rule:evenodd;stroke:none"
         id="path44" /><path
         d="m 5385.78,3287 122.58,-379.77 399.06,0.76 -323.3,-233.95 124.05,-379.26 -322.39,235.16 -322.4,-235.16 124.05,379.26 -323.3,233.95 399.06,-0.76 122.59,379.77"
         style="fill:#100f0d;fill-opacity:1;fill-rule:evenodd;stroke:none"
         id="path46" /></g></g></svg>
